# xmcd
#
# Track frame offsets:
#	200
#	3660
#	23757
#	43570
#	71115
#	89285
#	107417
#	131830
#	151750
#	172652
#	192775
#
# Disc length: 2993 seconds
#
# Revision: 1
# Processed by: cddbd v1.4PL0 Copyright (c) Steve Scherf et al.
# Submitted via: audiograbber 1.80
#
DISCID=7f0baf0b
DTITLE=Sa Snapp - No Gray Matter
DYEAR=1900
DGENRE=
TTITLE0=Theme For Lulu
TTITLE1=Heep On Dancing
TTITLE2=I Can't Get You Out Of My Mind
TTITLE3=The Itch
TTITLE4=Love Is Forever
TTITLE5=True Love Ways
TTITLE6=Debbie
TTITLE7=All Walk Alone
TTITLE8=Sidney
TTITLE9=Way Of The Heart
TTITLE10=No Gray Matter(Ohio Days)
EXTD=
EXTT0=
EXTT1=
EXTT2=
EXTT3=
EXTT4=
EXTT5=
EXTT6=
EXTT7=
EXTT8=
EXTT9=
EXTT10=
PLAYORDER=
